<svg
  width="117"
  height="48"
  viewBox="0 0 117 48"
  fill="none"
  xmlns="http://www.w3.org/2000/svg"
>
  <g clip-path="url(#clip0_291_2301)">
    <path
      d="M36.3077 3.00781H12.9301C7.85793 3.00781 3.74609 7.11965 3.74609 12.1919V35.5695C3.74609 40.6417 7.85793 44.7535 12.9301 44.7535H36.3077C41.38 44.7535 45.4918 40.6417 45.4918 35.5695V12.1919C45.4918 7.11965 41.38 3.00781 36.3077 3.00781Z"
      fill="#6231EB"
    />
    <path
      d="M26.3657 9.70801C26.5313 9.27768 26.9482 9.17354 27.2968 9.4754L39.2883 19.8605C39.6369 20.1623 39.7852 20.7559 39.6196 21.1862L32.5717 39.4971C32.406 39.9275 31.9892 40.0316 31.6406 39.7297L19.649 29.3447C19.3005 29.0429 19.1522 28.4493 19.3178 28.019L26.3657 9.70801Z"
      fill="#FBFBFB"
    />
    <path
      d="M29.5954 18.454L17.6038 8.06904C17.2552 7.76717 16.8384 7.87132 16.6727 8.30165L9.62486 26.6126C9.45922 27.0429 9.60752 27.6365 9.95608 27.9383L21.9477 38.3233C22.2962 38.6252 22.7131 38.5211 22.8787 38.0907L29.9266 19.7798C30.0922 19.3495 29.9439 18.7559 29.5954 18.454Z"
      fill="#FBFBFB"
    />
    <path
      fill-rule="evenodd"
      clip-rule="evenodd"
      d="M19.587 21.0372C19.3967 21.1673 19.3931 21.3831 19.5791 21.5194L20.6808 22.3262L18.0826 24.1019C17.8922 24.232 17.8887 24.4478 18.0747 24.5841L24.1371 29.0238C24.3231 29.16 24.6282 29.165 24.8185 29.0349L29.816 25.6195C30.0064 25.4894 30.0099 25.2735 29.8239 25.1373L28.5538 24.2072L31.1521 22.4315C31.3424 22.3014 31.3459 22.0855 31.1599 21.9493L25.266 17.6328C25.08 17.4966 24.7749 17.4916 24.5845 17.6217L19.587 21.0372Z"
      fill="#6231EB"
    />
  </g>
  <path
    d="M57.8359 34.8867H54.3438L54.332 32.4023H57.3086C57.7773 32.4023 58.1602 32.3242 58.457 32.168C58.7617 32.0039 58.9844 31.7656 59.125 31.4531C59.2734 31.1328 59.3477 30.7461 59.3477 30.293C59.3477 29.7695 59.2812 29.3516 59.1484 29.0391C59.0156 28.7188 58.8008 28.4844 58.5039 28.3359C58.207 28.1875 57.8203 28.1133 57.3438 28.1133H55.5156V42.3281H52.082V25.2656H57.3438C58.1953 25.2656 58.957 25.3594 59.6289 25.5469C60.3008 25.7344 60.8711 26.0195 61.3398 26.4023C61.8086 26.7852 62.1641 27.2695 62.4062 27.8555C62.6562 28.4414 62.7812 29.1328 62.7812 29.9297C62.7812 30.6328 62.6406 31.2812 62.3594 31.875C62.0781 32.4688 61.6367 32.9531 61.0352 33.3281C60.4414 33.7031 59.6641 33.9141 58.7031 33.9609L57.8359 34.8867ZM57.7188 42.3281H53.3711L54.7422 39.4922H57.7188C58.1719 39.4922 58.5391 39.3945 58.8203 39.1992C59.1016 39.0039 59.3047 38.7422 59.4297 38.4141C59.5547 38.0781 59.6172 37.6953 59.6172 37.2656C59.6172 36.7812 59.5586 36.3594 59.4414 36C59.332 35.6406 59.1484 35.3672 58.8906 35.1797C58.6328 34.9844 58.2852 34.8867 57.8477 34.8867H54.8945L54.918 32.4023H58.5039L59.3125 33.3867C60.2266 33.3555 60.957 33.5312 61.5039 33.9141C62.0508 34.2891 62.4414 34.7812 62.6758 35.3906C62.918 35.9922 63.0391 36.6328 63.0391 37.3125C63.0391 38.4062 62.832 39.3281 62.418 40.0781C62.0117 40.8203 61.4141 41.3828 60.625 41.7656C59.8359 42.1406 58.8672 42.3281 57.7188 42.3281ZM68.6758 32.4727V42.3281H65.3945V29.6484H68.4883L68.6758 32.4727ZM71.6641 29.5547L71.6172 32.8242C71.4688 32.793 71.2891 32.7695 71.0781 32.7539C70.875 32.7383 70.6953 32.7305 70.5391 32.7305C70.1719 32.7305 69.8594 32.7891 69.6016 32.9062C69.3438 33.0156 69.1289 33.1836 68.957 33.4102C68.793 33.6289 68.668 33.9023 68.582 34.2305C68.4961 34.5586 68.4453 34.9297 68.4297 35.3438L67.8086 35.1094C67.8086 34.2812 67.8711 33.5234 67.9961 32.8359C68.1289 32.1406 68.3242 31.5391 68.582 31.0312C68.8398 30.5156 69.1484 30.1172 69.5078 29.8359C69.875 29.5547 70.2891 29.4141 70.75 29.4141C70.9062 29.4141 71.0703 29.4297 71.2422 29.4609C71.4219 29.4844 71.5625 29.5156 71.6641 29.5547ZM78.2148 42.5625C77.3477 42.5625 76.5781 42.4297 75.9062 42.1641C75.2422 41.8984 74.6797 41.5156 74.2188 41.0156C73.7578 40.5078 73.4062 39.8945 73.1641 39.1758C72.9219 38.457 72.8008 37.6367 72.8008 36.7148V35.6719C72.8008 34.6406 72.918 33.7383 73.1523 32.9648C73.3867 32.1836 73.7188 31.5273 74.1484 30.9961C74.5781 30.4648 75.1055 30.0703 75.7305 29.8125C76.3633 29.5469 77.0781 29.4141 77.875 29.4141C78.6719 29.4141 79.3711 29.5469 79.9727 29.8125C80.582 30.0703 81.0859 30.4609 81.4844 30.9844C81.8828 31.5 82.1836 32.1406 82.3867 32.9062C82.5898 33.6719 82.6914 34.5625 82.6914 35.5781V37.0781H74.1953V34.7695H79.4688V34.4766C79.4688 33.9609 79.4141 33.5312 79.3047 33.1875C79.1953 32.8359 79.0234 32.5742 78.7891 32.4023C78.5547 32.2305 78.2422 32.1445 77.8516 32.1445C77.5234 32.1445 77.2461 32.2109 77.0195 32.3438C76.793 32.4766 76.6133 32.6836 76.4805 32.9648C76.3477 33.2461 76.25 33.6133 76.1875 34.0664C76.125 34.5117 76.0938 35.0469 76.0938 35.6719V36.7148C76.0938 37.3008 76.1445 37.793 76.2461 38.1914C76.3477 38.582 76.4961 38.9023 76.6914 39.1523C76.8945 39.3945 77.1406 39.5703 77.4297 39.6797C77.7188 39.7812 78.0547 39.832 78.4375 39.832C79.0156 39.832 79.5352 39.7305 79.9961 39.5273C80.4648 39.3164 80.8633 39.0312 81.1914 38.6719L82.5039 40.6641C82.2773 40.9609 81.9648 41.2578 81.5664 41.5547C81.168 41.8516 80.6914 42.0938 80.1367 42.2812C79.582 42.4688 78.9414 42.5625 78.2148 42.5625ZM89.6992 42.5625C88.832 42.5625 88.0625 42.4297 87.3906 42.1641C86.7266 41.8984 86.1641 41.5156 85.7031 41.0156C85.2422 40.5078 84.8906 39.8945 84.6484 39.1758C84.4062 38.457 84.2852 37.6367 84.2852 36.7148V35.6719C84.2852 34.6406 84.4023 33.7383 84.6367 32.9648C84.8711 32.1836 85.2031 31.5273 85.6328 30.9961C86.0625 30.4648 86.5898 30.0703 87.2148 29.8125C87.8477 29.5469 88.5625 29.4141 89.3594 29.4141C90.1562 29.4141 90.8555 29.5469 91.457 29.8125C92.0664 30.0703 92.5703 30.4609 92.9688 30.9844C93.3672 31.5 93.668 32.1406 93.8711 32.9062C94.0742 33.6719 94.1758 34.5625 94.1758 35.5781V37.0781H85.6797V34.7695H90.9531V34.4766C90.9531 33.9609 90.8984 33.5312 90.7891 33.1875C90.6797 32.8359 90.5078 32.5742 90.2734 32.4023C90.0391 32.2305 89.7266 32.1445 89.3359 32.1445C89.0078 32.1445 88.7305 32.2109 88.5039 32.3438C88.2773 32.4766 88.0977 32.6836 87.9648 32.9648C87.832 33.2461 87.7344 33.6133 87.6719 34.0664C87.6094 34.5117 87.5781 35.0469 87.5781 35.6719V36.7148C87.5781 37.3008 87.6289 37.793 87.7305 38.1914C87.832 38.582 87.9805 38.9023 88.1758 39.1523C88.3789 39.3945 88.625 39.5703 88.9141 39.6797C89.2031 39.7812 89.5391 39.832 89.9219 39.832C90.5 39.832 91.0195 39.7305 91.4805 39.5273C91.9492 39.3164 92.3477 39.0312 92.6758 38.6719L93.9883 40.6641C93.7617 40.9609 93.4492 41.2578 93.0508 41.5547C92.6523 41.8516 92.1758 42.0938 91.6211 42.2812C91.0664 42.4688 90.4258 42.5625 89.6992 42.5625ZM104.746 39.5977V42.3281H96.6953V39.5977H104.746ZM104.664 31.6406L97.9844 42.3281H95.793V40.2656L102.438 29.6484H104.664V31.6406ZM103.516 29.6484V32.3789H95.9219V29.6484H103.516ZM110.113 40.875L112.762 29.6484H116.184L112.012 44.2266C111.918 44.5469 111.789 44.8906 111.625 45.2578C111.461 45.6328 111.242 45.9844 110.969 46.3125C110.703 46.6484 110.367 46.9219 109.961 47.1328C109.555 47.3438 109.066 47.4492 108.496 47.4492C108.207 47.4492 107.973 47.4297 107.793 47.3906C107.621 47.3594 107.402 47.3047 107.137 47.2266V44.6719C107.207 44.6719 107.273 44.6719 107.336 44.6719C107.406 44.6797 107.473 44.6836 107.535 44.6836C107.902 44.6836 108.195 44.6328 108.414 44.5312C108.633 44.4375 108.809 44.2891 108.941 44.0859C109.082 43.8828 109.199 43.6289 109.293 43.3242L110.113 40.875ZM109.434 29.6484L111.402 38.7422L111.848 42.4453L109.633 42.6562L105.918 29.6484H109.434Z"
    fill="#6231EB"
  />
  <defs>
    <clipPath id="clip0_291_2301">
      <rect
        width="45"
        height="46"
        fill="white"
        transform="translate(0.921875 0.328125)"
      />
    </clipPath>
  </defs>
</svg>
